<svg width="30" height="50" viewBox="0 0 30 50" fill="none" xmlns="http://www.w3.org/2000/svg">
<path d="M17 2C17 0.895431 16.1046 0 15 0C13.8954 0 13 0.895431 13 2H17ZM13.5858 49.4142C14.3668 50.1953 15.6332 50.1953 16.4142 49.4142L29.1421 36.6863C29.9232 35.9052 29.9232 34.6389 29.1421 33.8579C28.3611 33.0768 27.0948 33.0768 26.3137 33.8579L15 45.1716L3.68629 33.8579C2.90524 33.0768 1.63891 33.0768 0.857864 33.8579C0.0768158 34.6389 0.0768158 35.9052 0.857864 36.6863L13.5858 49.4142ZM13 2V48H17V2H13Z" fill="black"/>
</svg>
